STARTFONT 2.1
FONT MyMono
SIZE 15 72 72
FONTBOUNDINGBOX 8 22 0 -8
STARTPROPERTIES 11
FOUNDRY "Fine"
FAMILY_NAME "Nabla Mono"
WEIGHT_NAME "Medium"
SLANT "R"
SETWIDTH_NAME "Normal"
SPACING "c"
CHARSET_REGISTRY "ISO10646"
CHARSET_ENCODING "1"
COPYRIGHT "Designer of this font retains full rights under the law"
FONT_ASCENT  14
FONT_DESCENT 8
ENDPROPERTIES
CHARS 151
STARTCHAR C040
ENCODING 32
SWIDTH 533 0
DWIDTH 8 0
BBX 0 0 0 0
BITMAP
ENDCHAR
STARTCHAR C041
ENCODING 33
SWIDTH 533 0
DWIDTH 8 0
BBX 1 14 3 -1
BITMAP
80
80
80
80
80
80
80
80
80
80
00
00
80
80
ENDCHAR
STARTCHAR C042
ENCODING 34
SWIDTH 533 0
DWIDTH 8 0
BBX 3 4 2 10
BITMAP
a0
a0
a0
a0
ENDCHAR
STARTCHAR C043
ENCODING 35
SWIDTH 533 0
DWIDTH 8 0
BBX 7 10 0 -3
BITMAP
28
28
28
fe
28
28
fe
28
28
28
ENDCHAR
STARTCHAR C044
ENCODING 36
SWIDTH 533 0
DWIDTH 8 0
BBX 7 19 0 -5
BITMAP
10
10
10
7c
92
90
90
90
7c
12
12
12
12
92
7c
10
10
10
10
ENDCHAR
STARTCHAR C045
ENCODING 37
SWIDTH 533 0
DWIDTH 8 0
BBX 7 11 0 -2
BITMAP
60
90
92
64
08
10
20
4c
92
12
0c
ENDCHAR
STARTCHAR C046
ENCODING 38
SWIDTH 533 0
DWIDTH 8 0
BBX 7 9 0 0
BITMAP
70
88
88
50
22
54
88
94
62
ENDCHAR
STARTCHAR C047
ENCODING 39
SWIDTH 533 0
DWIDTH 8 0
BBX 1 4 3 10
BITMAP
80
80
80
80
ENDCHAR
STARTCHAR C050
ENCODING 40
SWIDTH 533 0
DWIDTH 8 0
BBX 7 21 0 -7
BITMAP
02
04
08
10
20
20
40
40
80
80
80
80
80
40
40
20
20
10
08
04
02
ENDCHAR
STARTCHAR C051
ENCODING 41
SWIDTH 533 0
DWIDTH 8 0
BBX 7 21 0 -7
BITMAP
80
40
20
10
08
08
04
04
02
02
02
02
02
04
04
08
08
10
20
40
80
ENDCHAR
STARTCHAR C052
ENCODING 42
SWIDTH 533 0
DWIDTH 8 0
BBX 7 7 0 3
BITMAP
10
54
10
ee
10
54
10
ENDCHAR
STARTCHAR C053
ENCODING 43
SWIDTH 533 0
DWIDTH 8 0
BBX 7 7 0 0
BITMAP
10
10
10
fe
10
10
10
ENDCHAR
STARTCHAR C054
ENCODING 44
SWIDTH 533 0
DWIDTH 8 0
BBX 3 5 1 -3
BITMAP
20
20
20
40
80
ENDCHAR
STARTCHAR C055
ENCODING 45
SWIDTH 533 0
DWIDTH 8 0
BBX 5 1 1 3
BITMAP
f8
ENDCHAR
STARTCHAR C056
ENCODING 46
SWIDTH 533 0
DWIDTH 8 0
BBX 1 3 3 -1
BITMAP
80
80
80
ENDCHAR
STARTCHAR C057
ENCODING 47
SWIDTH 533 0
DWIDTH 8 0
BBX 7 14 0 -3
BITMAP
02
02
04
04
08
08
10
10
20
20
40
40
80
80
ENDCHAR
STARTCHAR C060
ENCODING 48
SWIDTH 533 0
DWIDTH 8 0
BBX 7 7 0 0
BITMAP
38
44
82
82
82
44
38
ENDCHAR
STARTCHAR C061
ENCODING 49
SWIDTH 533 0
DWIDTH 8 0
BBX 5 13 0 0
BITMAP
08
18
28
28
48
88
08
08
08
08
08
08
08
ENDCHAR
STARTCHAR C062
ENCODING 50
SWIDTH 533 0
DWIDTH 8 0
BBX 7 14 0 -1
BITMAP
38
44
82
82
82
04
08
10
20
40
40
80
c2
3c
ENDCHAR
STARTCHAR C063
ENCODING 51
SWIDTH 533 0
DWIDTH 8 0
BBX 7 14 0 -1
BITMAP
fe
04
08
10
20
40
f8
04
02
02
02
02
84
78
ENDCHAR
STARTCHAR C064
ENCODING 52
SWIDTH 533 0
DWIDTH 8 0
BBX 7 17 0 -5
BITMAP
02
02
04
04
08
08
10
22
42
84
fc
04
04
08
08
10
10
ENDCHAR
STARTCHAR C065
ENCODING 53
SWIDTH 533 0
DWIDTH 8 0
BBX 7 15 0 -1
BITMAP
fe
80
80
80
80
80
f8
04
02
02
02
02
02
84
78
ENDCHAR
STARTCHAR C066
ENCODING 54
SWIDTH 533 0
DWIDTH 8 0
BBX 7 14 0 0
BITMAP
02
04
08
08
10
10
20
78
44
82
82
82
44
38
ENDCHAR
STARTCHAR C067
ENCODING 55
SWIDTH 533 0
DWIDTH 8 0
BBX 7 13 0 0
BITMAP
fe
84
08
10
10
20
20
40
40
40
80
80
80
ENDCHAR
STARTCHAR C070
ENCODING 56
SWIDTH 533 0
DWIDTH 8 0
BBX 7 13 0 0
BITMAP
38
44
82
82
82
44
38
44
82
82
82
44
38
ENDCHAR
STARTCHAR C071
ENCODING 57
SWIDTH 533 0
DWIDTH 8 0
BBX 7 17 0 -4
BITMAP
38
44
82
82
82
44
3c
08
08
10
10
20
20
40
40
80
80
ENDCHAR
STARTCHAR C072
ENCODING 58
SWIDTH 533 0
DWIDTH 8 0
BBX 1 6 3 0
BITMAP
80
80
00
00
80
80
ENDCHAR
STARTCHAR C073
ENCODING 59
SWIDTH 533 0
DWIDTH 8 0
BBX 3 9 1 -3
BITMAP
20
20
00
00
20
20
20
40
80
ENDCHAR
STARTCHAR C074
ENCODING 60
SWIDTH 533 0
DWIDTH 8 0
BBX 7 9 0 -1
BITMAP
02
04
08
30
c0
30
08
04
02
ENDCHAR
STARTCHAR C075
ENCODING 61
SWIDTH 533 0
DWIDTH 8 0
BBX 7 4 0 0
BITMAP
fe
00
00
fe
ENDCHAR
STARTCHAR C076
ENCODING 62
SWIDTH 533 0
DWIDTH 8 0
BBX 7 9 0 -1
BITMAP
80
40
20
18
06
18
20
40
80
ENDCHAR
STARTCHAR C077
ENCODING 63
SWIDTH 533 0
DWIDTH 8 0
BBX 7 15 0 -1
BITMAP
38
44
82
82
82
44
08
10
10
10
00
00
10
10
10
ENDCHAR
STARTCHAR C100
ENCODING 64
SWIDTH 533 0
DWIDTH 8 0
BBX 7 10 0 -3
BITMAP
38
44
82
9a
aa
aa
be
80
40
3c
ENDCHAR
STARTCHAR C101
ENCODING 65
SWIDTH 533 0
DWIDTH 8 0
BBX 7 14 0 0
BITMAP
7c
82
82
82
82
82
fe
82
82
82
82
82
82
82
ENDCHAR
STARTCHAR C102
ENCODING 66
SWIDTH 533 0
DWIDTH 8 0
BBX 7 14 0 0
BITMAP
fc
82
82
82
82
82
fc
82
82
82
82
82
82
fe
ENDCHAR
STARTCHAR C103
ENCODING 67
SWIDTH 533 0
DWIDTH 8 0
BBX 7 14 0 0
BITMAP
7e
80
80
80
80
80
80
80
80
80
80
80
80
7e
ENDCHAR
STARTCHAR C104
ENCODING 68
SWIDTH 533 0
DWIDTH 8 0
BBX 7 14 0 0
BITMAP
f8
84
82
82
82
82
82
82
82
82
82
82
84
f8
ENDCHAR
STARTCHAR C105
ENCODING 69
SWIDTH 533 0
DWIDTH 8 0
BBX 7 14 0 0
BITMAP
fe
80
80
80
80
80
fe
80
80
80
80
80
80
fe
ENDCHAR
STARTCHAR C106
ENCODING 70
SWIDTH 533 0
DWIDTH 8 0
BBX 7 14 0 0
BITMAP
fe
80
80
80
80
80
fc
80
80
80
80
80
80
80
ENDCHAR
STARTCHAR C107
ENCODING 71
SWIDTH 533 0
DWIDTH 8 0
BBX 7 14 0 0
BITMAP
7c
82
82
82
80
80
80
9e
82
82
82
82
82
fe
ENDCHAR
STARTCHAR C110
ENCODING 72
SWIDTH 533 0
DWIDTH 8 0
BBX 7 14 0 0
BITMAP
82
82
82
82
82
82
fe
82
82
82
82
82
82
82
ENDCHAR
STARTCHAR C111
ENCODING 73
SWIDTH 533 0
DWIDTH 8 0
BBX 7 14 0 0
BITMAP
fe
10
10
10
10
10
10
10
10
10
10
10
10
fe
ENDCHAR
STARTCHAR C112
ENCODING 74
SWIDTH 533 0
DWIDTH 8 0
BBX 7 14 0 0
BITMAP
7e
02
02
02
02
02
02
02
02
82
82
82
44
38
ENDCHAR
STARTCHAR C113
ENCODING 75
SWIDTH 533 0
DWIDTH 8 0
BBX 7 14 0 0
BITMAP
82
84
88
90
a0
c0
c0
a0
90
90
88
84
84
82
ENDCHAR
STARTCHAR C114
ENCODING 76
SWIDTH 533 0
DWIDTH 8 0
BBX 7 14 0 0
BITMAP
80
80
80
80
80
80
80
80
80
80
80
80
80
fe
ENDCHAR
STARTCHAR C115
ENCODING 77
SWIDTH 533 0
DWIDTH 8 0
BBX 7 14 0 0
BITMAP
82
c6
aa
aa
92
92
82
82
82
82
82
82
82
82
ENDCHAR
STARTCHAR C116
ENCODING 78
SWIDTH 533 0
DWIDTH 8 0
BBX 7 14 0 0
BITMAP
82
82
c2
a2
a2
a2
92
92
8a
8a
8a
86
82
82
ENDCHAR
STARTCHAR C117
ENCODING 79
SWIDTH 533 0
DWIDTH 8 0
BBX 7 14 0 0
BITMAP
7c
82
82
82
82
82
82
82
82
82
82
82
82
7c
ENDCHAR
STARTCHAR C120
ENCODING 80
SWIDTH 533 0
DWIDTH 8 0
BBX 7 14 0 0
BITMAP
fc
82
82
82
82
82
fc
80
80
80
80
80
80
80
ENDCHAR
STARTCHAR C121
ENCODING 81
SWIDTH 533 0
DWIDTH 8 0
BBX 7 19 0 -5
BITMAP
7c
82
82
82
82
82
82
82
82
82
82
8a
8a
7c
08
08
08
04
02
ENDCHAR
STARTCHAR C122
ENCODING 82
SWIDTH 533 0
DWIDTH 8 0
BBX 7 14 0 0
BITMAP
fc
82
82
82
82
82
fc
82
82
82
82
82
82
82
ENDCHAR
STARTCHAR C123
ENCODING 83
SWIDTH 533 0
DWIDTH 8 0
BBX 7 14 0 0
BITMAP
7e
80
80
80
80
80
7c
02
02
02
02
02
02
fc
ENDCHAR
STARTCHAR C124
ENCODING 84
SWIDTH 533 0
DWIDTH 8 0
BBX 7 14 0 0
BITMAP
fe
10
10
10
10
10
10
10
10
10
10
10
10
10
ENDCHAR
STARTCHAR C125
ENCODING 85
SWIDTH 533 0
DWIDTH 8 0
BBX 7 14 0 0
BITMAP
82
82
82
82
82
82
82
82
82
82
82
82
82
7c
ENDCHAR
STARTCHAR C126
ENCODING 86
SWIDTH 533 0
DWIDTH 8 0
BBX 7 14 0 0
BITMAP
82
82
82
82
82
82
82
82
82
44
44
28
10
10
ENDCHAR
STARTCHAR C127
ENCODING 87
SWIDTH 533 0
DWIDTH 8 0
BBX 7 14 0 0
BITMAP
82
82
82
82
82
82
82
92
92
54
54
28
28
28
ENDCHAR
STARTCHAR C130
ENCODING 88
SWIDTH 533 0
DWIDTH 8 0
BBX 7 14 0 0
BITMAP
82
82
44
44
28
28
10
10
28
28
44
44
82
82
ENDCHAR
STARTCHAR C131
ENCODING 89
SWIDTH 533 0
DWIDTH 8 0
BBX 7 14 0 0
BITMAP
82
82
82
44
44
28
28
10
10
10
10
10
10
10
ENDCHAR
STARTCHAR C132
ENCODING 90
SWIDTH 533 0
DWIDTH 8 0
BBX 7 14 0 0
BITMAP
fe
02
04
04
08
08
10
10
20
20
40
40
80
fe
ENDCHAR
STARTCHAR C133
ENCODING 91
SWIDTH 533 0
DWIDTH 8 0
BBX 7 21 0 -7
BITMAP
fe
80
80
80
80
80
80
80
80
80
80
80
80
80
80
80
80
80
80
80
fe
ENDCHAR
STARTCHAR C134
ENCODING 92
SWIDTH 533 0
DWIDTH 8 0
BBX 7 14 0 -3
BITMAP
80
80
40
40
20
20
10
10
08
08
04
04
02
02
ENDCHAR
STARTCHAR C135
ENCODING 93
SWIDTH 533 0
DWIDTH 8 0
BBX 7 21 0 -7
BITMAP
fe
02
02
02
02
02
02
02
02
02
02
02
02
02
02
02
02
02
02
02
fe
ENDCHAR
STARTCHAR C136
ENCODING 94
SWIDTH 533 0
DWIDTH 8 0
BBX 7 4 0 10
BITMAP
10
28
44
82
ENDCHAR
STARTCHAR C137
ENCODING 95
SWIDTH 533 0
DWIDTH 8 0
BBX 8 1 0 0
BITMAP
ff
ENDCHAR
STARTCHAR C140
ENCODING 96
SWIDTH 533 0
DWIDTH 8 0
BBX 3 4 1 10
BITMAP
80
40
20
20
ENDCHAR
STARTCHAR C141
ENCODING 97
SWIDTH 533 0
DWIDTH 8 0
BBX 7 7 0 0
BITMAP
3a
46
82
82
86
8a
f2
ENDCHAR
STARTCHAR C142
ENCODING 98
SWIDTH 533 0
DWIDTH 8 0
BBX 7 14 0 0
BITMAP
80
80
80
80
80
80
80
be
c2
82
82
82
c4
b8
ENDCHAR
STARTCHAR C143
ENCODING 99
SWIDTH 533 0
DWIDTH 8 0
BBX 6 7 0 0
BITMAP
38
44
80
80
80
84
78
ENDCHAR
STARTCHAR C144
ENCODING 100
SWIDTH 533 0
DWIDTH 8 0
BBX 7 13 0 0
BITMAP
02
02
02
02
02
02
3a
46
82
82
86
8a
72
ENDCHAR
STARTCHAR C145
ENCODING 101
SWIDTH 533 0
DWIDTH 8 0
BBX 6 7 0 0
BITMAP
38
44
88
f0
80
80
7c
ENDCHAR
STARTCHAR C146
ENCODING 102
SWIDTH 533 0
DWIDTH 8 0
BBX 7 21 0 -7
BITMAP
0c
12
10
10
10
10
10
10
10
10
7e
10
10
10
10
10
10
10
10
10
e0
ENDCHAR
STARTCHAR C147
ENCODING 103
SWIDTH 533 0
DWIDTH 8 0
BBX 7 14 0 -7
BITMAP
3a
46
42
42
46
4a
32
02
02
02
02
02
84
78
ENDCHAR
STARTCHAR C150
ENCODING 104
SWIDTH 533 0
DWIDTH 8 0
BBX 7 14 0 0
BITMAP
80
80
80
80
80
80
80
9e
a2
c2
82
82
82
82
ENDCHAR
STARTCHAR C151
ENCODING 105
SWIDTH 533 0
DWIDTH 8 0
BBX 3 10 2 0
BITMAP
40
40
00
00
40
c0
40
40
60
40
ENDCHAR
STARTCHAR C152
ENCODING 106
SWIDTH 533 0
DWIDTH 8 0
BBX 4 17 0 -7
BITMAP
10
10
00
00
10
30
10
10
10
10
10
10
10
10
10
20
c0
ENDCHAR
STARTCHAR C153
ENCODING 107
SWIDTH 533 0
DWIDTH 8 0
BBX 7 14 0 0
BITMAP
80
80
80
80
80
80
80
9c
a4
c8
d0
e0
98
86
ENDCHAR
STARTCHAR C154
ENCODING 108
SWIDTH 533 0
DWIDTH 8 0
BBX 4 15 2 -1
BITMAP
70
80
80
80
80
80
80
80
80
80
80
80
80
e0
80
ENDCHAR
STARTCHAR C155
ENCODING 109
SWIDTH 533 0
DWIDTH 8 0
BBX 7 7 0 0
BITMAP
b4
da
92
92
92
92
92
ENDCHAR
STARTCHAR C156
ENCODING 110
SWIDTH 533 0
DWIDTH 8 0
BBX 6 7 0 0
BITMAP
98
a4
c4
84
84
84
84
ENDCHAR
STARTCHAR C157
ENCODING 111
SWIDTH 533 0
DWIDTH 8 0
BBX 7 7 0 0
BITMAP
3c
42
82
82
82
84
78
ENDCHAR
STARTCHAR C160
ENCODING 112
SWIDTH 533 0
DWIDTH 8 0
BBX 6 14 0 -7
BITMAP
b8
c4
84
84
84
c8
b0
80
80
80
80
80
80
80
ENDCHAR
STARTCHAR C161
ENCODING 113
SWIDTH 533 0
DWIDTH 8 0
BBX 7 14 0 -7
BITMAP
7a
86
82
82
86
8a
72
02
02
02
02
02
02
02
ENDCHAR
STARTCHAR C162
ENCODING 114
SWIDTH 533 0
DWIDTH 8 0
BBX 6 7 1 0
BITMAP
98
a4
c4
80
80
80
80
ENDCHAR
STARTCHAR C163
ENCODING 115
SWIDTH 533 0
DWIDTH 8 0
BBX 7 7 0 0
BITMAP
3c
42
40
3c
02
82
7c
ENDCHAR
STARTCHAR C164
ENCODING 116
SWIDTH 533 0
DWIDTH 8 0
BBX 6 13 0 0
BITMAP
20
20
20
20
20
fc
20
20
20
20
20
20
1c
ENDCHAR
STARTCHAR C165
ENCODING 117
SWIDTH 533 0
DWIDTH 8 0
BBX 6 7 0 0
BITMAP
84
84
84
84
8c
94
e4
ENDCHAR
STARTCHAR C166
ENCODING 118
SWIDTH 533 0
DWIDTH 8 0
BBX 5 7 1 0
BITMAP
88
88
90
90
a0
a0
c0
ENDCHAR
STARTCHAR C167
ENCODING 119
SWIDTH 533 0
DWIDTH 8 0
BBX 7 7 0 0
BITMAP
82
92
92
92
b4
d8
90
ENDCHAR
STARTCHAR C170
ENCODING 120
SWIDTH 533 0
DWIDTH 8 0
BBX 7 7 0 0
BITMAP
c2
24
18
10
30
48
86
ENDCHAR
STARTCHAR C171
ENCODING 121
SWIDTH 533 0
DWIDTH 8 0
BBX 7 14 0 -7
BITMAP
42
42
42
42
46
4a
32
02
02
02
02
02
84
78
ENDCHAR
STARTCHAR C172
ENCODING 122
SWIDTH 533 0
DWIDTH 8 0
BBX 7 7 0 0
BITMAP
7e
04
08
10
20
40
fe
ENDCHAR
STARTCHAR C173
ENCODING 123
SWIDTH 533 0
DWIDTH 8 0
BBX 7 21 0 -7
BITMAP
06
08
10
10
10
10
10
10
10
20
e0
20
10
10
10
10
10
10
10
08
06
ENDCHAR
STARTCHAR C174
ENCODING 124
SWIDTH 533 0
DWIDTH 8 0
BBX 1 21 3 -7
BITMAP
80
80
80
80
80
80
80
80
80
80
80
80
80
80
80
80
80
80
80
80
80
ENDCHAR
STARTCHAR C175
ENCODING 125
SWIDTH 533 0
DWIDTH 8 0
BBX 7 21 0 -7
BITMAP
c0
20
10
10
10
10
10
10
10
08
0e
08
10
10
10
10
10
10
10
20
c0
ENDCHAR
STARTCHAR C176
ENCODING 126
SWIDTH 533 0
DWIDTH 8 0
BBX 7 3 0 6
BITMAP
62
92
8c
ENDCHAR
STARTCHAR C200
ENCODING 128
SWIDTH 533 0
DWIDTH 8 0
BBX 0 0 0 0
BITMAP
ENDCHAR
STARTCHAR C217
ENCODING 143
SWIDTH 533 0
DWIDTH 8 0
BBX 0 0 0 0
BITMAP
ENDCHAR
STARTCHAR C242
ENCODING 162
SWIDTH 533 0
DWIDTH 8 0
BBX 6 11 0 -2
BITMAP
10
10
38
54
90
90
90
94
78
10
10
ENDCHAR
STARTCHAR C247
ENCODING 167
SWIDTH 533 0
DWIDTH 8 0
BBX 7 15 0 -3
BITMAP
3c
40
40
40
38
44
82
82
82
44
38
04
04
04
78
ENDCHAR
STARTCHAR C251
ENCODING 169
SWIDTH 533 0
DWIDTH 8 0
BBX 7 7 0 3
BITMAP
38
44
ba
a2
ba
44
38
ENDCHAR
STARTCHAR C253
ENCODING 171
SWIDTH 533 0
DWIDTH 8 0
BBX 7 7 0 -1
BITMAP
12
24
48
90
48
24
12
ENDCHAR
STARTCHAR C254
ENCODING 172
SWIDTH 533 0
DWIDTH 8 0
BBX 7 4 0 1
BITMAP
fe
02
02
02
ENDCHAR
STARTCHAR C255
ENCODING 173
SWIDTH 533 0
DWIDTH 8 0
BBX 3 1 2 3
BITMAP
e0
ENDCHAR
STARTCHAR C256
ENCODING 174
SWIDTH 533 0
DWIDTH 8 0
BBX 7 7 0 3
BITMAP
38
44
b2
b2
aa
44
38
ENDCHAR
STARTCHAR C257
ENCODING 175
SWIDTH 533 0
DWIDTH 8 0
BBX 8 1 0 13
BITMAP
ff
ENDCHAR
STARTCHAR C260
ENCODING 176
SWIDTH 533 0
DWIDTH 8 0
BBX 4 4 1 10
BITMAP
60
90
90
60
ENDCHAR
STARTCHAR C261
ENCODING 177
SWIDTH 533 0
DWIDTH 8 0
BBX 7 7 0 0
BITMAP
10
10
10
fe
10
10
fe
ENDCHAR
STARTCHAR C262
ENCODING 178
SWIDTH 533 0
DWIDTH 8 0
BBX 4 7 0 7
BITMAP
60
90
90
20
40
80
f0
ENDCHAR
STARTCHAR C263
ENCODING 179
SWIDTH 533 0
DWIDTH 8 0
BBX 4 7 0 7
BITMAP
60
90
10
20
10
90
60
ENDCHAR
STARTCHAR C264
ENCODING 180
SWIDTH 533 0
DWIDTH 8 0
BBX 3 4 1 10
BITMAP
20
40
80
80
ENDCHAR
STARTCHAR C265
ENCODING 181
SWIDTH 533 0
DWIDTH 8 0
BBX 6 14 0 -7
BITMAP
84
84
84
84
8c
94
e4
80
80
80
80
80
80
80
ENDCHAR
STARTCHAR C266
ENCODING 182
SWIDTH 533 0
DWIDTH 8 0
BBX 7 14 0 0
BITMAP
7e
f2
f2
f2
f2
72
12
12
12
12
12
12
12
12
ENDCHAR
STARTCHAR C267
ENCODING 183
SWIDTH 533 0
DWIDTH 8 0
BBX 3 3 2 2
BITMAP
40
e0
40
ENDCHAR
STARTCHAR C270
ENCODING 184
SWIDTH 533 0
DWIDTH 8 0
BBX 3 3 1 -3
BITMAP
20
20
c0
ENDCHAR
STARTCHAR C271
ENCODING 185
SWIDTH 533 0
DWIDTH 8 0
BBX 4 6 0 7
BITMAP
20
60
a0
20
20
f0
ENDCHAR
STARTCHAR C272
ENCODING 186
SWIDTH 533 0
DWIDTH 8 0
BBX 5 5 0 9
BITMAP
70
88
88
88
70
ENDCHAR
STARTCHAR C273
ENCODING 187
SWIDTH 533 0
DWIDTH 8 0
BBX 7 7 0 -1
BITMAP
90
48
24
12
24
48
90
ENDCHAR
STARTCHAR C274
ENCODING 188
SWIDTH 533 0
DWIDTH 8 0
BBX 7 10 0 3
BITMAP
40
c2
44
e8
12
24
48
92
1e
02
ENDCHAR
STARTCHAR C275
ENCODING 189
SWIDTH 533 0
DWIDTH 8 0
BBX 7 11 0 2
BITMAP
40
c2
44
e8
10
24
4a
82
04
08
0e
ENDCHAR
STARTCHAR C276
ENCODING 190
SWIDTH 533 0
DWIDTH 8 0
BBX 7 11 0 3
BITMAP
c0
20
42
24
c8
12
24
48
92
1e
02
ENDCHAR
STARTCHAR C277
ENCODING 191
SWIDTH 533 0
DWIDTH 8 0
BBX 7 15 0 -7
BITMAP
10
10
10
00
00
10
10
10
08
44
82
82
82
44
38
ENDCHAR
STARTCHAR C340
ENCODING 224
SWIDTH 533 0
DWIDTH 8 0
BBX 7 12 0 0
BITMAP
40
30
0c
00
00
3a
46
82
82
86
8a
f2
ENDCHAR
STARTCHAR C341
ENCODING 225
SWIDTH 533 0
DWIDTH 8 0
BBX 7 12 0 0
BITMAP
04
18
60
00
00
3a
46
82
82
86
8a
f2
ENDCHAR
STARTCHAR C342
ENCODING 226
SWIDTH 533 0
DWIDTH 8 0
BBX 7 12 0 0
BITMAP
10
28
44
00
00
3a
46
82
82
86
8a
f2
ENDCHAR
STARTCHAR C343
ENCODING 227
SWIDTH 533 0
DWIDTH 8 0
BBX 7 12 0 0
BITMAP
32
5a
4c
00
00
3a
46
82
82
86
8a
f2
ENDCHAR
STARTCHAR C344
ENCODING 228
SWIDTH 533 0
DWIDTH 8 0
BBX 7 10 0 0
BITMAP
6c
00
00
3a
46
82
82
86
8a
f2
ENDCHAR
STARTCHAR C345
ENCODING 229
SWIDTH 533 0
DWIDTH 8 0
BBX 7 13 0 0
BITMAP
18
24
24
18
00
00
3a
46
82
82
86
8a
f2
ENDCHAR
STARTCHAR C346
ENCODING 230
SWIDTH 533 0
DWIDTH 8 0
BBX 7 7 0 0
BITMAP
7c
92
92
9c
90
b0
de
ENDCHAR
STARTCHAR C347
ENCODING 231
SWIDTH 533 0
DWIDTH 8 0
BBX 6 12 0 -5
BITMAP
38
44
80
80
80
84
78
10
10
08
08
70
ENDCHAR
STARTCHAR C350
ENCODING 232
SWIDTH 533 0
DWIDTH 8 0
BBX 6 11 0 0
BITMAP
60
18
00
00
38
44
88
f0
80
80
7c
ENDCHAR
STARTCHAR C351
ENCODING 233
SWIDTH 533 0
DWIDTH 8 0
BBX 6 11 0 0
BITMAP
18
60
00
00
38
44
88
f0
80
80
7c
ENDCHAR
STARTCHAR C352
ENCODING 234
SWIDTH 533 0
DWIDTH 8 0
BBX 6 12 0 0
BITMAP
10
28
44
00
00
38
44
88
f0
80
80
7c
ENDCHAR
STARTCHAR C353
ENCODING 235
SWIDTH 533 0
DWIDTH 8 0
BBX 6 10 0 0
BITMAP
6c
00
00
38
44
88
f0
80
80
7c
ENDCHAR
STARTCHAR C354
ENCODING 236
SWIDTH 533 0
DWIDTH 8 0
BBX 4 12 1 0
BITMAP
80
40
20
20
00
00
20
60
20
20
30
20
ENDCHAR
STARTCHAR C355
ENCODING 237
SWIDTH 533 0
DWIDTH 8 0
BBX 4 12 2 0
BITMAP
10
20
40
40
00
00
40
c0
40
40
60
40
ENDCHAR
STARTCHAR C356
ENCODING 238
SWIDTH 533 0
DWIDTH 8 0
BBX 5 11 1 0
BITMAP
20
50
88
00
00
20
60
20
20
30
20
ENDCHAR
STARTCHAR C357
ENCODING 239
SWIDTH 533 0
DWIDTH 8 0
BBX 5 9 1 0
BITMAP
d8
00
00
20
60
20
20
30
20
ENDCHAR
STARTCHAR C361
ENCODING 241
SWIDTH 533 0
DWIDTH 8 0
BBX 7 12 0 0
BITMAP
62
92
8c
00
00
98
a4
c4
84
84
84
84
ENDCHAR
STARTCHAR C362
ENCODING 242
SWIDTH 533 0
DWIDTH 8 0
BBX 7 11 0 0
BITMAP
60
18
00
00
3c
42
82
82
82
84
78
ENDCHAR
STARTCHAR C363
ENCODING 243
SWIDTH 533 0
DWIDTH 8 0
BBX 7 11 0 0
BITMAP
0c
30
00
00
3c
42
82
82
82
84
78
ENDCHAR
STARTCHAR C364
ENCODING 244
SWIDTH 533 0
DWIDTH 8 0
BBX 7 12 0 0
BITMAP
10
28
44
00
00
3c
42
82
82
82
84
78
ENDCHAR
STARTCHAR C365
ENCODING 245
SWIDTH 533 0
DWIDTH 8 0
BBX 7 12 0 0
BITMAP
62
92
8c
00
00
3c
42
82
82
82
84
78
ENDCHAR
STARTCHAR C366
ENCODING 246
SWIDTH 533 0
DWIDTH 8 0
BBX 7 10 0 0
BITMAP
6c
00
00
3c
42
82
82
82
84
78
ENDCHAR
STARTCHAR C367
ENCODING 247
SWIDTH 533 0
DWIDTH 8 0
BBX 7 7 0 0
BITMAP
10
10
00
fe
00
10
10
ENDCHAR
STARTCHAR C370
ENCODING 248
SWIDTH 533 0
DWIDTH 8 0
BBX 7 7 0 0
BITMAP
3a
44
8a
92
a2
44
b8
ENDCHAR
STARTCHAR C371
ENCODING 249
SWIDTH 533 0
DWIDTH 8 0
BBX 6 11 0 0
BITMAP
60
18
00
00
84
84
84
84
8c
94
e4
ENDCHAR
STARTCHAR C372
ENCODING 250
SWIDTH 533 0
DWIDTH 8 0
BBX 6 11 0 0
BITMAP
18
60
00
00
84
84
84
84
8c
94
e4
ENDCHAR
STARTCHAR C373
ENCODING 251
SWIDTH 533 0
DWIDTH 8 0
BBX 6 12 0 0
BITMAP
10
28
44
00
00
84
84
84
84
8c
94
e4
ENDCHAR
STARTCHAR C374
ENCODING 252
SWIDTH 533 0
DWIDTH 8 0
BBX 6 10 0 0
BITMAP
6c
00
00
84
84
84
84
8c
94
e4
ENDCHAR
STARTCHAR C375
ENCODING 253
SWIDTH 533 0
DWIDTH 8 0
BBX 7 18 0 -7
BITMAP
0c
30
00
00
42
42
42
42
46
4a
32
02
02
02
02
02
84
78
ENDCHAR
STARTCHAR C377
ENCODING 255
SWIDTH 533 0
DWIDTH 8 0
BBX 7 17 0 -7
BITMAP
36
00
00
42
42
42
42
46
4a
32
02
02
02
02
02
84
78
ENDCHAR
ENDFONT
